<svg id="Layer_1" data-name="Layer 1" xmlns="http://www.w3.org/2000/svg" viewBox="0 0 313.93 30.58"><defs><style>.cls-1{fill:#003a54;}</style></defs><g id="Group_703" data-name="Group 703"><g id="nimilogo"><path id="Path_1" data-name="Path 1" class="cls-1" d="M62,3.86h5.72V15.25L78.28,3.86H85.2L74.58,14.91l11.1,14.94H78.81l-8.07-11-3,3.12v7.93H62Z" transform="translate(-0.65 -0.34)"/><path id="Path_2" data-name="Path 2" class="cls-1" d="M111.63,16.93v-.05A7.9,7.9,0,0,0,104,8.71h-.27c-4.62,0-7.79,3.65-7.79,8.12v.1a7.84,7.84,0,0,0,15.67.66q0-.33,0-.66M90,16.93v-.05c0-7.4,5.81-13.45,13.88-13.45s13.79,6,13.79,13.36v.1c0,7.4-5.81,13.45-13.88,13.45S90,24.33,90,16.93" transform="translate(-0.65 -0.34)"/><path id="Path_3" data-name="Path 3" class="cls-1" d="M125.9,3.86h5.72V15.25L142.19,3.86h6.92L138.49,14.91l11.1,14.94h-6.87l-8.08-11-3,3.12v7.93H125.9Z" transform="translate(-0.65 -0.34)"/><path id="Path_4" data-name="Path 4" class="cls-1" d="M175.82,16.93v-.05a7.9,7.9,0,0,0-7.61-8.17h-.27c-4.61,0-7.78,3.65-7.78,8.12v.1a7.84,7.84,0,1,0,15.66.66q0-.33,0-.66m-21.67,0v-.05c0-7.4,5.82-13.45,13.89-13.45s13.79,6,13.79,13.36v.1c0,7.4-5.82,13.45-13.89,13.45s-13.79-6-13.79-13.41" transform="translate(-0.65 -0.34)"/><path id="Path_5" data-name="Path 5" class="cls-1" d="M210.51,16.93v-.05a7.89,7.89,0,0,0-7.6-8.17h-.28c-4.61,0-7.78,3.65-7.78,8.12v.1a7.84,7.84,0,1,0,15.66.66q0-.33,0-.66m-21.67,0v-.05c0-7.4,5.82-13.45,13.89-13.45s13.79,6,13.79,13.36v.1a13.45,13.45,0,0,1-13.41,13.46h-.43c-8.07,0-13.84-6-13.84-13.41" transform="translate(-0.65 -0.34)"/><path id="Path_6" data-name="Path 6" class="cls-1" d="M247.17,3.86l-7.92,10-7.88-10h-6.15v26h5.57V13l8.46,10,8.45-10V29.85h5.63v-26Z" transform="translate(-0.65 -0.34)"/><path id="Path_7" data-name="Path 7" class="cls-1" d="M263.56,18.7V3.86h5.72v14.7c0,4.23,2.11,6.44,5.62,6.44s5.62-2.12,5.62-6.25V3.86h5.72v14.7c0,7.88-4.42,11.72-11.44,11.72s-11.24-3.89-11.24-11.58" transform="translate(-0.65 -0.34)"/><path id="Path_8" data-name="Path 8" class="cls-1" d="M294,26.06l3.37-4a12,12,0,0,0,7.78,3.17c2.35,0,3.75-.91,3.75-2.45v0c0-1.44-.92-2.21-5.24-3.31-5.24-1.35-8.6-2.79-8.6-8v-.1c0-4.71,3.8-7.83,9.08-7.83a15.07,15.07,0,0,1,9.66,3.32l-3,4.32a12.28,12.28,0,0,0-6.77-2.55c-2.21,0-3.37,1-3.37,2.26v0c0,1.73,1.11,2.26,5.62,3.41,5.29,1.4,8.27,3.27,8.27,7.79v.1c0,5.14-3.94,8.07-9.56,8.07a16.56,16.56,0,0,1-11-4.18" transform="translate(-0.65 -0.34)"/></g><g id="ruiskukka_white" data-name="ruiskukka white"><path id="Path_36" data-name="Path 36" class="cls-1" d="M18.82,3.62a1.16,1.16,0,0,0,1.37-.45L21.75.67a.55.55,0,0,1,.73-.28.59.59,0,0,1,.28.28l1.56,2.5a1.17,1.17,0,0,0,1.37.45l2.83-1.09c.49-.19.72,0,.51.52L22.6,18.58c-.2.48-.53.48-.72,0L15.48,3.05c-.2-.48,0-.71.51-.52Z" transform="translate(-0.65 -0.34)"/><path id="Path_37" data-name="Path 37" class="cls-1" d="M6.87,11.43a1.19,1.19,0,0,0,.66-1.3L6.87,7.26c-.12-.52.2-.82.7-.7l2.87.65a1.17,1.17,0,0,0,1.3-.65L13,3.78c.2-.48.54-.46.74,0l6.44,15.52c.2.49,0,.72-.51.51L4.1,13.39c-.49-.2-.49-.53,0-.75Z" transform="translate(-0.65 -0.34)"/><g id="Group_9" data-name="Group 9"><path id="Path_38" data-name="Path 38" class="cls-1" d="M3.94,25.4A1.19,1.19,0,0,0,3.48,24L1,22.46a.55.55,0,0,1,0-1l2.5-1.57a1.17,1.17,0,0,0,.46-1.37l-1.1-2.83c-.19-.48.05-.71.53-.51l15.52,6.43c.48.2.48.53,0,.72L3.37,28.74c-.49.2-.72,0-.53-.52Z" transform="translate(-0.65 -0.34)"/><path id="Path_39" data-name="Path 39" class="cls-1" d="M40.59,18.51A1.19,1.19,0,0,0,41,19.88l2.5,1.56a.56.56,0,0,1,.29.73.61.61,0,0,1-.29.28L41,24a1.18,1.18,0,0,0-.45,1.37l1.1,2.83c.19.48,0,.72-.53.51L25.63,22.29c-.48-.2-.48-.53,0-.72l15.53-6.43c.48-.2.72,0,.53.51Z" transform="translate(-0.65 -0.34)"/></g><path id="Path_40" data-name="Path 40" class="cls-1" d="M32.78,6.56a1.18,1.18,0,0,0,1.3.65L37,6.56c.51-.12.82.2.7.7L37,10.13a1.18,1.18,0,0,0,.66,1.3l2.77,1.23c.48.2.47.54,0,.74L24.89,19.84c-.48.2-.71,0-.51-.51L30.81,3.8c.2-.48.53-.48.75,0Z" transform="translate(-0.65 -0.34)"/><path id="Path_41" data-name="Path 41" class="cls-1" d="M22.26,30.93a7.27,7.27,0,0,0,6.67-4.43.72.72,0,0,0-.38-.93l-6-2.5a.72.72,0,0,0-.54,0l-6,2.5a.7.7,0,0,0-.38.91v0A7.21,7.21,0,0,0,22.26,30.93Z" transform="translate(-0.65 -0.34)"/></g></g></svg>
